HIERARCHY
ROOT Hips
{
	OFFSET -0.001795 -0.223333 0.028219
	CHANNELS 6 Xposition Yposition Zposition Zrotation Yrotation Xrotation 
	JOINT LeftUpLeg
	{
		OFFSET 0.069520 -0.091406 -0.006815
		CHANNELS 3 Zrotation Yrotation Xrotation
		JOINT LeftLeg
		{
			OFFSET 0.034277 -0.375199 -0.004496
			CHANNELS 3 Zrotation Yrotation Xrotation
			JOINT LeftFoot
			{
				OFFSET -0.013596 -0.397961 -0.043693
				CHANNELS 3 Zrotation Yrotation Xrotation
				JOINT LeftToe
				{
					OFFSET 0.026358 -0.055791 0.119288
					CHANNELS 3 Zrotation Yrotation Xrotation
					End Site
					{
						OFFSET 0.000000 0.000000 0.000000
					}
				}
			}
		}
	}
	JOINT RightUpLeg
	{
		OFFSET -0.067670 -0.090522 -0.004320
		CHANNELS 3 Zrotation Yrotation Xrotation
		JOINT RightLeg
		{
			OFFSET -0.038290 -0.382569 -0.008850
			CHANNELS 3 Zrotation Yrotation Xrotation
			JOINT RightFoot
			{
				OFFSET 0.015774 -0.398415 -0.042312
				CHANNELS 3 Zrotation Yrotation Xrotation
				JOINT RightToe
				{
					OFFSET -0.025372 -0.048144 0.123348
					CHANNELS 3 Zrotation Yrotation Xrotation
					End Site
					{
						OFFSET 0.000000 0.000000 0.000000
					}
				}
			}
		}
	}
	JOINT Spine
	{
		OFFSET -0.002533 0.108963 -0.026696
		CHANNELS 3 Zrotation Yrotation Xrotation
		JOINT Spine1
		{
			OFFSET 0.005487 0.135180 0.001092
			CHANNELS 3 Zrotation Yrotation Xrotation
			JOINT Spine2
			{
				OFFSET 0.001457 0.052922 0.025425
				CHANNELS 3 Zrotation Yrotation Xrotation
				JOINT Neck
				{
					OFFSET -0.002778 0.213870 -0.042857
					CHANNELS 3 Zrotation Yrotation Xrotation
					JOINT Head
					{
						OFFSET 0.005152 0.064970 0.051349
						CHANNELS 3 Zrotation Yrotation Xrotation
						End Site
						{
							OFFSET 0.000000 0.000000 0.000000
						}
					}
				}
				JOINT LeftShoulder
				{
					OFFSET 0.078845 0.121749 -0.034090
					CHANNELS 3 Zrotation Yrotation Xrotation
					JOINT LeftArm
					{
						OFFSET 0.090977 0.030469 -0.008868
						CHANNELS 3 Zrotation Yrotation Xrotation
						JOINT LeftForeArm
						{
							OFFSET 0.259612 -0.012772 -0.027456
							CHANNELS 3 Zrotation Yrotation Xrotation
							JOINT LeftHand
							{
								OFFSET 0.249234 0.008986 -0.001171
								CHANNELS 3 Zrotation Yrotation Xrotation
								End Site
								{
									OFFSET 0.000000 0.000000 0.000000
								}
							}
						}
					}
				}
				JOINT RightShoulder
				{
					OFFSET -0.081759 0.118833 -0.038615
					CHANNELS 3 Zrotation Yrotation Xrotation
					JOINT RightArm
					{
						OFFSET -0.096012 0.032551 -0.009143
						CHANNELS 3 Zrotation Yrotation Xrotation
						JOINT RightForeArm
						{
							OFFSET -0.253742 -0.013329 -0.021401
							CHANNELS 3 Zrotation Yrotation Xrotation
							JOINT RightHand
							{
								OFFSET -0.255298 0.007772 -0.005559
								CHANNELS 3 Zrotation Yrotation Xrotation
								End Site
								{
									OFFSET 0.000000 0.000000 0.000000
								}
							}
						}
					}
				}
			}
		}
	}
}
MOTION
Frames: 12
Frame Time: 0.050000
0.000000 0.949383 0.000000 -2.456421 -2.480343 0.283217 3.772754 -0.649316 -11.066203 -3.678530 1.019226 50.342581 0.859664 5.711181 11.394783 0.000000 0.000000 0.000000 7.385579 1.580445 -10.575603 1.317625 0.350098 14.552306 -0.824495 -6.181637 9.813016 0.000000 0.000000 0.000000 -0.458201 -0.484431 13.809132 5.911427 -0.546968 -28.087781 0.148304 1.138010 28.931629 -0.181013 1.738592 -28.680703 0.000000 0.000000 0.000000 -32.298320 3.856874 -4.669032 -47.189539 -8.073560 -5.139992 -11.454194 -30.273151 4.849747 0.000000 0.000000 0.000000 23.437810 -0.001633 -1.443734 51.904851 6.099468 -5.195557 3.568105 23.923085 1.772171 0.000000 0.000000 0.000000 
-0.004047 0.952447 0.044230 -2.652399 -3.854483 1.404899 3.791409 -0.921175 -17.010429 -3.380460 1.129638 46.683855 3.301084 8.993548 8.460752 0.000000 0.000000 0.000000 8.155222 0.976564 -7.026659 0.573542 0.422937 11.614018 -0.360034 -4.989747 8.665054 0.000000 0.000000 0.000000 -1.869981 -0.250122 12.529203 8.104855 -0.845551 -29.343853 0.690172 2.606427 30.539029 -0.364822 2.009457 -30.043150 0.000000 0.000000 0.000000 -32.672099 5.963070 -6.469269 -47.987116 -6.546163 -5.791725 -13.015839 -30.116607 5.280057 0.000000 0.000000 0.000000 20.166482 0.527416 -0.680054 54.513096 7.897961 -4.741636 3.588361 26.443844 2.075590 0.000000 0.000000 0.000000 
-0.007246 0.951866 0.088223 -1.806954 -5.862776 0.667699 3.934999 -0.998629 -21.511567 -4.958268 2.248662 42.269123 3.840589 9.328416 6.118337 0.000000 0.000000 0.000000 7.277205 0.245185 -2.869117 0.028804 0.533948 11.015189 0.362897 -2.852549 6.779616 0.000000 0.000000 0.000000 -1.748824 -0.251935 13.678990 6.369753 -0.470731 -29.974206 1.728546 5.889597 30.689923 -1.179153 2.839164 -29.953805 0.000000 0.000000 0.000000 -32.730618 6.013267 -7.402058 -46.493137 -5.478421 -5.769894 -14.868011 -30.233165 5.638942 0.000000 0.000000 0.000000 20.364883 0.671592 -0.034445 54.845378 9.869942 -4.021829 2.610046 26.940067 2.040289 0.000000 0.000000 0.000000 
-0.009706 0.948488 0.132313 -1.751194 -7.298038 0.423855 4.111000 -0.951161 -24.002273 -5.337208 1.998556 31.953108 4.369044 10.296693 7.179475 0.000000 0.000000 0.000000 6.634137 -0.402523 1.261184 0.203934 0.455218 9.851262 0.813629 -0.888684 4.699066 0.000000 0.000000 0.000000 -2.350437 -0.151679 14.503850 7.279914 -0.495580 -31.314015 1.900246 8.279657 32.133797 -1.324108 3.269294 -32.307873 0.000000 0.000000 0.000000 -32.991748 7.260328 -8.991345 -46.173222 -4.951617 -5.834842 -16.178451 -30.238855 5.922351 0.000000 0.000000 0.000000 20.427247 0.544976 0.346989 54.001675 12.493368 -3.084204 2.895599 29.288304 2.461207 0.000000 0.000000 0.000000 
-0.011865 0.941242 0.177806 -1.718949 -9.016699 0.240931 4.336938 -0.811718 -25.559612 -5.345386 1.251826 16.567524 5.663343 13.311448 19.715633 0.000000 0.000000 0.000000 5.993928 -0.928726 5.159896 -0.659294 0.580812 9.154736 1.771022 2.757189 2.292847 0.000000 0.000000 0.000000 -2.590753 -0.079868 15.211542 6.937346 -0.509679 -30.589732 2.868243 10.609484 31.697316 -1.612410 3.680490 -33.371811 0.000000 0.000000 0.000000 -33.626609 7.102321 -9.647621 -45.827732 -4.451431 -5.728351 -15.218154 -29.415477 5.383444 0.000000 0.000000 0.000000 20.563423 1.333791 1.104540 53.205024 14.777272 -2.066529 1.124610 31.349881 2.283056 0.000000 0.000000 0.000000 
-0.013635 0.931742 0.225959 -2.316348 -10.700174 0.257061 5.321486 -0.439777 -26.398013 -4.072522 0.582179 3.530622 5.077166 12.788000 26.755025 0.000000 0.000000 0.000000 5.990524 -1.368381 8.598874 -0.746421 0.597116 9.002579 1.392303 2.884904 0.760649 0.000000 0.000000 0.000000 -2.313328 -0.093592 15.053189 7.206037 -0.588283 -30.371170 3.384165 12.398787 31.586754 -1.954477 3.996038 -33.291840 0.000000 0.000000 0.000000 -33.485555 8.217165 -10.780675 -46.684086 -2.885022 -6.258383 -15.315676 -29.105198 5.305439 0.000000 0.000000 0.000000 20.181784 1.533984 1.372979 52.967238 17.157066 -0.969914 -0.232598 32.140611 2.032695 0.000000 0.000000 0.000000 
-0.014960 0.921530 0.278796 -2.433352 -12.161028 -0.149114 4.978463 -0.412727 -25.830671 -2.631319 0.361264 -1.211203 2.793090 9.634537 25.829823 0.000000 0.000000 0.000000 4.815841 -1.610341 12.275294 -0.745047 0.644843 9.541424 1.903955 4.510770 0.233613 0.000000 0.000000 0.000000 -2.877530 0.026575 15.543601 7.601600 -0.575689 -30.944036 3.870469 14.019128 32.506706 -0.624151 3.480530 -34.061356 0.000000 0.000000 0.000000 -32.458892 8.032199 -10.612707 -47.509813 -1.988276 -6.753459 -13.029048 -28.168358 4.524071 0.000000 0.000000 0.000000 20.997130 1.084678 1.346616 52.244081 18.453482 -0.609208 -0.605938 33.427738 2.113274 0.000000 0.000000 0.000000 
-0.015630 0.914144 0.337161 -1.978647 -13.229877 -0.780654 4.283215 -0.501578 -26.418171 -2.790175 0.398230 4.344435 2.523772 8.655832 22.283941 0.000000 0.000000 0.000000 3.139811 -1.628589 16.042817 -0.926755 0.824304 11.370003 2.278303 5.179989 0.492139 0.000000 0.000000 0.000000 -4.100573 0.215175 14.820532 7.283987 -0.665614 -29.803268 4.916209 13.895454 32.661098 -0.701408 3.354304 -32.651588 0.000000 0.000000 0.000000 -32.825250 8.075303 -10.396402 -47.264368 -2.050296 -6.771070 -10.420795 -25.934917 3.592777 0.000000 0.000000 0.000000 21.164756 1.733554 1.507279 51.878551 19.173365 -0.278313 -1.118153 33.169936 1.879353 0.000000 0.000000 0.000000 
-0.014946 0.913046 0.400049 -1.522372 -13.106591 -1.125391 3.026417 -0.835696 -26.469544 -3.215229 0.639847 11.642029 2.802275 8.523245 17.995962 0.000000 0.000000 0.000000 1.318532 -1.380439 17.472797 -1.178386 1.256757 15.729271 4.975727 6.807364 6.280526 0.000000 0.000000 0.000000 -4.883427 0.259526 12.892969 7.483718 -0.928019 -28.026283 4.224946 13.417213 32.654530 -1.215516 3.536671 -32.114164 0.000000 0.000000 0.000000 -33.063192 7.699145 -9.942431 -47.121264 -2.407142 -6.721267 -6.794697 -24.029199 2.580381 0.000000 0.000000 0.000000 22.963434 2.468309 1.875749 50.731749 18.884784 -0.597584 -1.909511 32.705306 1.587266 0.000000 0.000000 0.000000 
-0.012207 0.919224 0.463004 -0.719451 -12.526177 -1.394279 1.122531 -1.357710 -25.959742 -3.701824 0.994244 17.447775 3.507326 9.185289 13.952612 0.000000 0.000000 0.000000 -0.898402 -0.882849 15.252924 -0.338324 1.871644 24.079508 8.445228 5.639719 17.945695 0.000000 0.000000 0.000000 -6.170876 0.408051 12.468133 7.849377 -1.010199 -27.842795 4.324812 12.759207 32.809460 -1.672563 3.721269 -32.820912 0.000000 0.000000 0.000000 -33.970507 7.672435 -10.036996 -45.901566 -3.145005 -6.299449 -6.878109 -21.347907 2.292817 0.000000 0.000000 0.000000 21.989895 2.383054 1.723828 51.733122 17.586549 -1.035877 -1.203752 31.659396 1.694449 0.000000 0.000000 0.000000 
-0.008460 0.929391 0.521088 0.159454 -11.318403 -1.357874 -0.932562 -1.841166 -23.859988 -4.288668 1.210316 19.154718 3.977780 9.921356 12.638071 0.000000 0.000000 0.000000 -2.400134 -0.411970 8.975119 1.079442 2.777602 36.965707 10.040827 2.954554 28.315054 0.000000 0.000000 0.000000 -6.623968 0.480596 13.039819 8.175494 -0.982779 -28.467247 3.524404 11.771890 31.951383 -1.073412 3.351000 -33.091485 0.000000 0.000000 0.000000 -32.788850 7.263414 -9.336988 -45.634823 -3.940891 -5.979799 -6.908211 -20.758308 2.215722 0.000000 0.000000 0.000000 21.746416 1.140979 0.885663 53.048013 15.589444 -1.718721 -0.315831 30.797649 1.851751 0.000000 0.000000 0.000000 
-0.004837 0.938670 0.572952 0.563785 -9.829042 -1.303657 -2.833624 -2.042599 -20.140209 -3.865353 0.935674 17.622190 3.788178 9.697327 12.048269 0.000000 0.000000 0.000000 -2.896186 0.036833 1.306750 3.265652 2.876619 48.976925 8.531844 -1.443006 35.303757 0.000000 0.000000 0.000000 -5.862141 0.362320 13.340421 7.518485 -0.921137 -27.989719 2.513582 9.038770 31.156260 -1.050805 2.995433 -32.655891 0.000000 0.000000 0.000000 -32.918890 6.873780 -8.278330 -44.692998 -5.390105 -5.569220 -8.401880 -21.792290 2.671173 0.000000 0.000000 0.000000 22.504033 1.030843 0.261133 53.065735 14.096006 -2.233859 -0.518815 29.453378 1.574063 0.000000 0.000000 0.000000 
